<svg width="25" height="24" viewBox="0 0 25 24" fill="none" xmlns="http://www.w3.org/2000/svg">
<g clip-path="url(#clip0_14_38)">
<path d="M11.3107 17.08C14.1767 16.418 15.8497 15.839 14.5567 13.398C10.6247 5.971 13.5147 2 17.6677 2C21.9027 2 24.7217 6.124 20.7777 13.398C19.4457 15.853 21.2147 16.432 24.0197 17.08C26.5027 17.654 26.6667 18.867 26.6667 20.969V22H8.66675C8.66675 19.255 8.44675 17.742 11.3107 17.08ZM-1.33325 22H6.47575C6.44075 13.823 9.91175 16.687 9.91175 10.873C9.91175 8.362 8.27275 7 6.16375 7C3.04875 7 0.881748 9.979 3.83075 15.549C4.79975 17.379 2.79975 17.814 0.649748 18.31C-1.21225 18.74 -1.33325 19.65 -1.33325 21.227V22Z" fill="#374E64"/>
</g>
<defs>
<clipPath id="clip0_14_38">
<rect width="24" height="24" fill="white" transform="translate(0.666748)"/>
</clipPath>
</defs>
</svg>
