<svg width="24" height="24" viewBox="0 0 24 24" fill="none" xmlns="http://www.w3.org/2000/svg">
<path d="M20.422 11.516C20.244 8.283 17.391 5.738 13.99 6.024C12.903 4.785 11.297 4 9.5 4C6.328 4 3.746 6.443 3.578 9.516C1.545 9.875 0 11.621 0 13.722C0 16.084 1.949 18 4.354 18H5.68C6.451 19.198 7.804 20 9.354 20H19.645C22.051 20 24 18.084 24 15.722C24 13.621 22.455 11.875 20.422 11.516ZM5.027 16H4.354C3.057 16 2 14.978 2 13.722C2 11.604 4.104 11.125 5.488 11.21C5.438 9.854 5.625 6 9.5 6C10.467 6 11.214 6.25 11.79 6.644C9.967 7.566 8.694 9.39 8.578 11.516C6.556 11.874 4.881 13.643 5.027 16Z" fill="#374E64"/>
</svg>
