<svg width="25" height="24" viewBox="0 0 25 24" fill="none" xmlns="http://www.w3.org/2000/svg">
<g clip-path="url(#clip0_14_34)">
<path d="M24.3334 21V15H6.33337V21H24.3334ZM21.3334 17C21.8864 17 22.3334 17.448 22.3334 18C22.3334 18.552 21.8864 19 21.3334 19C20.7814 19 20.3334 18.552 20.3334 18C20.3334 17.448 20.7814 17 21.3334 17ZM13.5274 17H14.8024L13.9384 19H12.6644L13.5274 17ZM11.3864 17H12.6614L11.7984 19H10.5234L11.3864 17ZM9.19637 17H10.4714L9.60837 19H8.33337L9.19637 17ZM4.33337 17.941C2.08037 17.651 0.333374 15.747 0.333374 13.417C0.333374 11.165 1.95937 9.296 4.10037 8.911C4.27737 5.617 6.99537 3 10.3334 3C13.6714 3 16.3894 5.617 16.5664 8.911C18.5714 9.272 20.1074 10.94 20.2954 13H18.3044C18.0254 10.895 15.6304 10.667 14.6544 10.599C14.7714 8.641 14.0994 5 10.3334 5C5.89537 5 5.97437 9.75 6.01237 10.599C5.06737 10.562 2.33337 10.94 2.33337 13.417C2.33337 14.64 3.18937 15.662 4.33337 15.928V17.941Z" fill="#374E64"/>
</g>
<defs>
<clipPath id="clip0_14_34">
<rect width="24" height="24" fill="white" transform="translate(0.333374)"/>
</clipPath>
</defs>
</svg>
